<?xml version="1.0" encoding="UTF-8"?>
<svg id="Layer_1" xmlns="http://www.w3.org/2000/svg" version="1.1" viewBox="0 0 1424.2 589">
  <!-- Generator: Adobe Illustrator 29.2.1, SVG Export Plug-In . SVG Version: 2.1.0 Build 116)  -->
  <defs>
    <style>
      .st0 {
        fill: #00c3c1;
      }

      .st1 {
        fill: #384559;
      }
    </style>
  </defs>
  <g>
    <path class="st1" d="M387.4,194.6c-1.1-25.4-.6-48.6.9-67.2,2.2-36.2,32.5-42.6,48.2-43.2,37-1.1,48.4,17,50.3,50.7,1.8,31.4,3.6,53.1,5.4,84.5,3,49,8.3,87.7,29.6,86.8,38.4-1.6,25.2-106.7,24.9-147-.9-43,3.2-78.9,54-81.9,49-3,44.8,31,47.9,103.6,3.3,80-2.5,206.7-123.2,211.7-104,4.4-133.1-80.1-138-198Z"/>
    <path class="st1" d="M664.2,279.4c-1.6-37.5-4.7-124.4-4.1-154.1,1-42.7,20.8-56,81.9-58.5,87.9-3.7,152.4,43.2,156.3,137.5,4.3,101.7-57.9,178.4-167,183-60.1,2.5-63.8-29.3-67-107.9ZM811.3,207.5c-1.6-38.4-31.7-59.8-71.1-49.4l5.8,126.7c29.8,2.5,67.9-16.3,65.3-77.3Z"/>
    <path class="st1" d="M912.5,269c-1.6-37.5-4.7-124.4-4.1-154.1,1-42.7,20.8-56,81.9-58.5,87.9-3.7,152.4,43.2,156.3,137.5,4.3,101.7-57.9,178.4-167,183-60.1,2.5-63.8-29.3-67-107.9ZM1059.6,197.1c-1.6-38.4-31.7-59.8-71.1-49.4l5.8,126.7c29.7,2.5,67.9-16.3,65.3-77.3Z"/>
  </g>
  <path class="st1" d="M1155.1,376.1c4-25.8,25.5-34.6,49-33.5,72.7,4,82.4-20.9,88.1-40.6-9,3.9-23.9,4.2-36.2,2.3-37.1-5.8-79.7-34.1-94.7-79.7-11.1-33.9-10.5-75-4.1-115.7,4.7-30.4,21.2-47.9,61.4-41.6,25.8,4,37.7,18.6,39,47.8,1.3,32.4-12.7,94.6,20.3,99.8,34,5.3,40.7-44.3,59.9-93,7.9-19.9,25.2-26.1,42.2-23.5,40.7,6.4,50.4,39,40.6,101.9-7.6,48.9-29.1,152.7-93.6,207.6-32.3,27.7-74.4,33.8-121.3,26.4-30.9-4.8-55.9-24-50.6-58Z"/>
  <g>
    <path class="st0" d="M182.2,496.4c-4.8-2.4-10.3-3.6-16.5-3.6h-41.6v94.6h23.9v-33.8h17.7c6.1,0,11.6-1.2,16.5-3.7,4.8-2.4,8.7-5.9,11.5-10.5,2.8-4.5,4.3-10,4.3-16.3s-1.4-11.9-4.3-16.4c-2.8-4.5-6.7-8-11.5-10.4ZM172.7,530.1c-1.2,1.9-2.7,3.3-4.6,4.3-1.9.9-4,1.4-6.3,1.4h-13.7v-25.2h13.7c2.3,0,4.4.5,6.3,1.5,1.9,1,3.4,2.4,4.6,4.3,1.2,1.9,1.7,4.2,1.7,6.9s-.6,5-1.7,6.9Z"/>
    <polygon class="st0" points="248.6 548.9 290.1 548.9 290.1 529.3 248.6 529.3 248.6 512.9 294.2 512.9 294.2 492.8 248.6 492.8 243.7 492.8 224.7 492.8 224.7 587.4 243.7 587.4 248.6 587.4 294.9 587.4 294.9 567.2 248.6 567.2 248.6 548.9"/>
    <polygon class="st0" points="318.4 513.3 347.2 513.3 347.2 587.4 371.1 587.4 371.1 513.3 400.2 513.3 400.2 492.8 318.4 492.8 318.4 513.3"/>
    <rect class="st0" x="465.6" y="492.8" width="23.9" height="94.6"/>
    <polygon class="st0" points="581.4 546.4 539 492.8 522.3 492.8 522.3 587.4 546.2 587.4 546.2 534.9 587.6 587.4 605.3 587.4 605.3 492.8 581.4 492.8 581.4 546.4"/>
    <path class="st0" d="M694.9,538.5c-2.6-2.2-5.5-4-8.6-5.5-3.1-1.4-6.3-2.7-9.4-3.7-3.2-1.1-6.1-2.1-8.7-3.2-2.6-1.1-4.7-2.2-6.3-3.5-1.6-1.3-2.4-3-2.4-5.1s.9-3.8,2.8-4.9c1.9-1.2,4.4-1.7,7.7-1.7s6.8.7,9.7,2.1c2.9,1.4,5.8,3.6,8.6,6.5l15.2-15.2c-3.6-4.1-8.4-7.3-14.2-9.6-5.8-2.3-12.2-3.5-19-3.5s-12.9,1.1-18,3.4c-5.2,2.3-9.2,5.6-12.1,9.9-2.9,4.4-4.3,9.5-4.3,15.5s.8,8.8,2.4,11.9c1.6,3.2,3.7,5.8,6.3,8,2.6,2.2,5.5,4,8.6,5.4,3.1,1.4,6.3,2.7,9.5,3.7,3.2,1.1,6.1,2.1,8.7,3.2,2.6,1.1,4.7,2.3,6.3,3.7,1.6,1.4,2.5,3.3,2.5,5.6s-1.1,4.3-3.3,5.7c-2.2,1.4-5.3,2.1-9.3,2.1s-8.9-.9-12.7-2.8c-3.7-1.9-7.2-4.5-10.4-7.9l-15.2,15.2c4.8,5.2,10.1,9,15.9,11.4,5.8,2.4,12.6,3.7,20.6,3.7,11.9,0,21.2-2.6,27.9-7.9,6.7-5.2,10-12.5,10-21.9s-.8-8.9-2.4-12.3c-1.6-3.4-3.7-6.2-6.3-8.4Z"/>
    <path class="st0" d="M788.7,551.5c0,3.4-.7,6.3-2.1,8.7-1.4,2.4-3.3,4.2-5.7,5.5-2.4,1.3-5.2,1.9-8.4,1.9s-5.9-.6-8.5-1.9c-2.5-1.3-4.5-3.2-6-5.6-1.5-2.4-2.2-5.4-2.2-8.7v-58.6h-23.9v56.7c0,7.7,1.7,14.4,5.1,20.4,3.4,5.9,8.2,10.6,14.3,14,6.1,3.4,13.1,5.1,21.2,5.1s15.2-1.7,21.2-5.1c6-3.4,10.7-8.1,14.1-13.9,3.3-5.9,5-12.6,5-20.3v-56.8h-24v58.7Z"/>
    <path class="st0" d="M900.8,545.5c5-2.4,8.9-5.6,11.7-9.8,2.8-4.2,4.2-9.1,4.2-14.8s-1.4-10.5-4.1-14.7c-2.8-4.2-6.6-7.5-11.4-9.9-4.9-2.4-10.4-3.6-16.7-3.6h-40.4v94.6h23.9v-38.3h1.4l26,38.3h27.6l-28.9-39.5c2.4-.6,4.7-1.4,6.9-2.4ZM880.9,510.5c3.8,0,6.8,1,8.9,3,2.1,2,3.1,4.6,3.1,7.8s-1,5.9-3.1,7.9c-2.1,2-5,2.9-8.9,2.9h-13.1v-21.6h13.1Z"/>
    <path class="st0" d="M973.4,492.8l-36.8,94.6h24.7l5.8-16.5h35.1l5.7,16.5h25.1l-36.4-94.6h-23.1ZM973.6,551.9l11.1-31.7,10.9,31.7h-22Z"/>
    <polygon class="st0" points="1117.8 546.4 1075.3 492.8 1058.6 492.8 1058.6 587.4 1082.5 587.4 1082.5 534.9 1123.9 587.4 1141.6 587.4 1141.6 492.8 1117.8 492.8 1117.8 546.4"/>
    <path class="st0" d="M1231.8,565.6c-3.3,1.4-7.2,2.1-11.7,2.1s-7.3-.7-10.5-2c-3.2-1.3-5.9-3.2-8.2-5.6s-4-5.3-5.3-8.7c-1.3-3.4-1.9-7.2-1.9-11.5s.6-7.8,1.9-11.2c1.3-3.4,3.1-6.3,5.3-8.7,2.3-2.4,5-4.2,8.3-5.5,3.2-1.3,6.7-1.9,10.5-1.9s8.2.7,11.5,2.1c3.3,1.4,6.1,3.4,8.4,5.9l16-16.1c-4.5-4.1-9.8-7.3-15.7-9.7-6-2.4-12.7-3.5-20.2-3.5s-13.9,1.2-20,3.7c-6.1,2.5-11.4,5.9-16,10.3-4.6,4.4-8.1,9.5-10.6,15.4-2.5,5.9-3.7,12.3-3.7,19.3s1.3,13.5,3.8,19.5c2.5,6,6.1,11.1,10.7,15.5,4.6,4.4,9.9,7.9,16.1,10.3,6.1,2.5,12.8,3.7,20,3.7s14.7-1.2,20.5-3.5c5.8-2.4,11.1-5.6,15.7-9.7l-16-16c-2.5,2.5-5.4,4.4-8.7,5.8Z"/>
    <polygon class="st0" points="1306.7 567.2 1306.7 548.9 1348.2 548.9 1348.2 529.3 1306.7 529.3 1306.7 512.9 1352.4 512.9 1352.4 492.8 1306.7 492.8 1301.8 492.8 1282.8 492.8 1282.8 587.4 1301.8 587.4 1306.7 587.4 1353 587.4 1353 567.2 1306.7 567.2"/>
  </g>
  <path class="st1" d="M1376.6,382.5c-25.6,40.1-18.1,44.4-77.9,67.2,55.1,4.8,73.4-27.1,77.9-67.2Z"/>
  <path class="st1" d="M1409,359.3c-4,43.5-16.8,71.6-52,101.3,53.1-22.2,63.5-47.9,52-101.3Z"/>
  <path class="st1" d="M391.2,266.5c-8-54.2-52.7-85.5-102.5-83.4,7.5-13.2,13-33,10-56.8-.6-4-1.4-7.9-2.3-11.6,18.1,11.2,36.1,19.1,41.8,14.9,8.3-6,28.3-62.4,12.3-86.5-14.6-22.1-32.6-18.4-79.1-27.5,10-5.4,19.5-12.4,5.9-14.1-12.5-1.6-25.3,4.4-34.4,10.1,3.5-6.5,6.1-14.3-3.9-10.8-16.2,5.7-23.1,30.4-23.1,30.4,0,0-.6-17.9-4.5-19.6-3.9-1.8-17.8,3.8-12.3,38.9-6.3.2-12.8.8-19.5,1.7-21.4,3.1-38.1,8.3-51,15.2-15.1-31.1-29.5-27.9-31.7-24.3-2.2,3.7,7.4,18.7,7.4,18.7,0,0-19.7-16.5-36.2-12-10.2,2.8-3.6,7.7,2.9,11.1-10.8.4-24.7,2.7-34.1,11.1-10.3,9.1,1.5,9.5,12.9,8.3C16.5,114.1-.4,121.2,0,147.7c.5,28.9,48.8,64.1,59.1,64.4,8.1.2,20.3-21.3,29.4-43.9,1.1,12,2.9,24.4,4.7,37,9.2,61.9,22.2,135.4,30.6,163.6,12,42,34.6,52.3,59,52.9,15.3.4,38.1-2.5,62.9-6.2,83.6-12.4,157.3-51.8,145.5-149.2ZM231,52.7c.1.1.2.3.3.4-.8-.2-1.5-.3-2.3-.5,1.2,0,2,0,2,0ZM183.4,177.2l-6.5-43.8c4-5.3,9.8-8.3,16.5-9.3,15.5-2.3,26.4,7.7,28.3,20.1,2.1,13.9-7.7,29.6-27.3,32.5-3.6.5-7.2,1.1-11,.6ZM234.5,329.8c-9.3,1.4-17.8,1.1-23.3-.8l-8.7-62.5c8.1-5.9,19.6-10.3,30.9-12,21.1-3.1,43.2,3.1,47.1,29.4,3.7,28.4-23.7,42.5-45.9,45.8Z"/>
</svg>